<svg width="59" height="60" fill="none" xmlns="http://www.w3.org/2000/svg"><path fill-rule="evenodd" clip-rule="evenodd" d="M29.491 0C13.21 0 0 13.425 0 30s13.198 30 29.491 30c16.283 0 29.492-13.425 29.492-30S45.774 0 29.492 0zm-2.338 38.803H11.616v-1.2H14.2V22.374h-2.584v-1.212h10.369v1.212h-2.851v15.216h.612c3.408 0 6.126-1.043 6.126-5.053v-.76h1.28v7.025zm20.604-16.427h.312v-1.213h-6.404v1.212h.467c1.292 0 1.994.476 1.994 1.428v7.466l-8.008-10.094h-7.484v1.212h.122c.98 0 1.972.77 1.972 1.971V35.79c0 1.53-.847 1.802-1.749 1.802h-.434v1.2l6.46.023-.067-1.223h-.19c-1.626 0-2.272-.238-2.272-1.666v-11l10.97 13.867h2.45V23.724c0-.635.547-1.349 1.86-1.349z" fill="#d9d9d9"/></svg>